# xmcd CD database file
#
# Track frame offsets:
#	150
#	26995
#	45570
#	65845
#	85255
#	100902
#	116585
#	128092
#	144475
#	163365
#
# Disc length: 2526 seconds
#
# Revision: 2
# Processed by: cddbd v1.5PL3 Copyright (c) Steve Scherf et al.
# Submitted via: CDex 1.51
#
DISCID=9009dc0a
DTITLE=Sammy Hagar - Not 4 Sale
DYEAR=2003
DGENRE=Hard Rock
TTITLE0=Stand Up
TTITLE1=Hallelujah
TTITLE2=Halfway To Memphis
TTITLE3=Things've Changed
TTITLE4=Whole Lotta Zep
TTITLE5=The Big Nail
TTITLE6=Make It Alright
TTITLE7=Not 4 Sale
TTITLE8=The Big Square Inch
TTITLE9=Karma Wheel
EXTD=YEAR: 2003
EXTT0=
EXTT1=
EXTT2=
EXTT3=
EXTT4=
EXTT5=
EXTT6=
EXTT7=
EXTT8=
EXTT9=
PLAYORDER=
